<?xml version="1.0" encoding="UTF-8" standalone="no"?>
<svg
   height="48"
   viewBox="0 -960 960 960"
   width="48"
   fill="#e3e3e3"
   version="1.1"
   id="svg1"
   xmlns="http://www.w3.org/2000/svg"
   xmlns:svg="http://www.w3.org/2000/svg">
  <defs
     id="defs1" />
  <path
     d="m 453,-280 h 60 v -240 h -60 z m 50.5,-323.2 q 9.5,-9.2 9.5,-22.8 0,-14.45 -9.48,-24.22 -9.48,-9.78 -23.5,-9.78 -14.02,0 -23.52,9.78 -9.5,9.77 -9.5,24.22 0,13.6 9.48,22.8 9.48,9.2 23.5,9.2 14.02,0 23.52,-9.2 z M 480.27,-80 q -82.74,0 -155.5,-31.5 Q 252,-143 197.5,-197.5 143,-252 111.5,-324.84 80,-397.68 80,-480.5 80,-563.32 111.5,-636.16 143,-709 197.5,-763 252,-817 324.84,-848.5 397.68,-880 480.5,-880 q 82.82,0 155.66,31.5 Q 709,-817 763,-763 q 54,54 85.5,127 31.5,73 31.5,155.73 0,82.74 -31.5,155.5 -31.5,72.77 -85.5,127.09 -54,54.31 -127,86 Q 563,-80 480.27,-80 Z m 0.23,-60 q 141.5,0 240.5,-99.5 99,-99.5 99,-241 Q 820,-622 721.19,-721 622.38,-820 480,-820 339,-820 239.5,-721.19 140,-622.38 140,-480 q 0,141 99.5,240.5 99.5,99.5 241,99.5 z M 480,-480 Z"
     id="path1"
     style="fill:#2675bf;fill-opacity:1" />
</svg>
