<?xml version="1.0" encoding="UTF-8" standalone="no"?>
<svg
   height="48px"
   viewBox="0 -960 960 960"
   width="48px"
   fill="#e3e3e3"
   version="1.1"
   id="svg1"
   sodipodi:docname="about_idle.svg"
   inkscape:version="1.4 (86a8ad7, 2024-10-11)"
   inkscape:export-filename="about_idle.svg"
   inkscape:export-xdpi="96"
   inkscape:export-ydpi="96"
   xmlns:inkscape="http://www.inkscape.org/namespaces/inkscape"
   xmlns:sodipodi="http://sodipodi.sourceforge.net/DTD/sodipodi-0.dtd"
   xmlns="http://www.w3.org/2000/svg"
   xmlns:svg="http://www.w3.org/2000/svg">
  <defs
     id="defs1" />
  <sodipodi:namedview
     id="namedview1"
     pagecolor="#ffffff"
     bordercolor="#000000"
     borderopacity="0.25"
     inkscape:showpageshadow="2"
     inkscape:pageopacity="0.0"
     inkscape:pagecheckerboard="0"
     inkscape:deskcolor="#d1d1d1"
     inkscape:zoom="37.6875"
     inkscape:cx="24"
     inkscape:cy="24"
     inkscape:window-width="3840"
     inkscape:window-height="2048"
     inkscape:window-x="-11"
     inkscape:window-y="-11"
     inkscape:window-maximized="1"
     inkscape:current-layer="svg1" />
  <path
     d="M453-280h60v-240h-60v240Zm50.5-323.2q9.5-9.2 9.5-22.8 0-14.45-9.48-24.22-9.48-9.78-23.5-9.78t-23.52 9.78Q447-640.45 447-626q0 13.6 9.48 22.8 9.48 9.2 23.5 9.2t23.52-9.2ZM480.27-80q-82.74 0-155.5-31.5Q252-143 197.5-197.5t-86-127.34Q80-397.68 80-480.5t31.5-155.66Q143-709 197.5-763t127.34-85.5Q397.68-880 480.5-880t155.66 31.5Q709-817 763-763t85.5 127Q880-563 880-480.27q0 82.74-31.5 155.5Q817-252 763-197.68q-54 54.31-127 86Q563-80 480.27-80Zm.23-60Q622-140 721-239.5t99-241Q820-622 721.19-721T480-820q-141 0-240.5 98.81T140-480q0 141 99.5 240.5t241 99.5Zm-.5-340Z"
     id="path1"
     style="fill:#212121;fill-opacity:1" />
</svg>
