<?xml version="1.0" encoding="UTF-8" standalone="no"?>
<svg
   height="48"
   viewBox="0 -960 960 960"
   width="48"
   version="1.1"
   id="svg1"
   xmlns="http://www.w3.org/2000/svg"
   xmlns:svg="http://www.w3.org/2000/svg">
  <defs
     id="defs1" />
  <path
     style="display:inline;fill:#212121;fill-opacity:1;stroke-width:0.524304"
     d="m 280.2403,-577.78264 c 0,9.96178 0,19.92354 0,29.88532 186.47734,0 372.95468,0 559.43202,0 0,-19.92354 0,-39.84708 0,-59.77062 -186.47734,0 -372.95468,0 -559.43202,0 0,9.96176 0,19.92354 0,29.8853 z"
     id="path2" />
  <path
     style="display:inline;fill:#212121;fill-opacity:1;stroke-width:0.524304"
     d="m 200.02184,-407.6461 c 0,9.8744 0,19.74878 0,29.62316 186.6521,0 373.30422,0 559.95632,0 0,-19.74876 0,-39.49754 0,-59.24632 -186.6521,0 -373.30422,0 -559.95632,0 0,9.8744 0,19.74878 0,29.62316 z"
     id="path3" />
  <path
     style="display:inline;fill:#212121;fill-opacity:1;stroke-width:0.524304"
     d="m 120.32769,-237.50956 c 0,9.96178 0,19.92354 0,29.88532 186.47733,0 372.95467,0 559.43201,0 0,-19.92354 0,-39.84708 0,-59.77062 -186.47734,0 -372.95468,0 -559.43201,0 0,9.96176 0,19.92354 0,29.8853 z"
     id="path4" />
</svg>
