<?xml version="1.0" encoding="UTF-8" standalone="no"?>
<svg
   height="48"
   viewBox="0 -960 960 960"
   width="48"
   fill="#e3e3e3"
   version="1.1"
   id="svg1"
   xmlns="http://www.w3.org/2000/svg"
   xmlns:svg="http://www.w3.org/2000/svg">
  <defs
     id="defs1" />
  <path
     d="m 770,-380 q -45,0 -77.5,32.08 -32.5,32.09 -32.5,77.92 0,45 32.5,77.5 32.5,32.5 78,32.5 45.5,0 77.5,-32.5 32,-32.5 32,-78 0,-45.5 -32.08,-77.5 -32.09,-32 -77.92,-32 z"
     id="path4"
     style="fill:#00c853;fill-opacity:1" />
  <path
     d="m 395,-648 -42,43 145,145 H 394 v 60 h 206 v -206 h -60 v 103 z"
     id="path3"
     style="fill:#00c853;fill-opacity:1" />
  <path
     d="m 140,-800 q -24,0 -42,18 -18,18 -18,42 v 520 q 0,24 18,42 18,18 42,18 h 460 v -60 H 140 v -520 h 680 v 300 h 60 v -300 q 0,-24 -18,-42 -18,-18 -42,-18 z"
     id="path1"
     style="fill:#2675bf;fill-opacity:1" />
</svg>
