<?xml version="1.0" encoding="UTF-8" standalone="no"?>
<svg
   width="148"
   height="48.000004"
   viewBox="0 0 265.16645 85.999927"
   fill="none"
   version="1.1"
   id="svg19"
   xmlns="http://www.w3.org/2000/svg"
   xmlns:svg="http://www.w3.org/2000/svg"
   xmlns:rdf="http://www.w3.org/1999/02/22-rdf-syntax-ns#"
   xmlns:cc="http://creativecommons.org/ns#">
  <defs
     id="defs19" />
  <rect
     style="display:inline;fill:#212121;stroke-width:1.04513"
     id="Background"
     width="265.16644"
     height="85.999924"
     x="0"
     y="0"
     rx="21.499981" />
  <g
     id="Logo"
     transform="translate(0.2503136,-0.45545099)">
    <path
       d="m 60.910558,26.827612 c 0.8057,-5.1637 0,-8.6743 -2.783,-11.8543 -3.0564,-3.5031 -8.5817,-5.0039008 -15.6481,-5.0039008 h -20.5155 c -0.6993,-7e-4 -1.3759,0.2496998 -1.9078,0.7061008 -0.5319,0.4563 -0.8842,1.0886 -0.9934,1.7829 l -8.5411,54.4528 c -0.0401,0.2526 -0.0252,0.5109 0.0436,0.7571 0.0689,0.2462 0.1901,0.4745 0.3552,0.6691 0.1651,0.1946 0.3703,0.3508 0.6013,0.458 0.2311,0.1072 0.4825,0.1627 0.7369,0.1627 h 12.6656 l -0.8722,5.5723 c -0.0347,0.2212 -0.0213,0.4473 0.0392,0.6627 0.0606,0.2155 0.1669,0.4151 0.3116,0.5853 0.1448,0.1702 0.3244,0.3069 0.5268,0.4005 0.2023,0.0937 0.4224,0.1422 0.6451,0.1421 h 10.6809 c 0.6119,3e-4 1.2038,-0.2194 1.6687,-0.6193 0.4649,-0.3998 0.7723,-0.9536 0.8667,-1.5613 l 0.1071,-0.5424 2.0106,-12.8201 0.1293,-0.7095 c 0.0952,-0.6071 0.4029,-1.16 0.8678,-1.5591 0.4648,-0.3991 1.0562,-0.6182 1.6676,-0.6178 h 1.5966 c 10.3483,0 18.4422,-4.2239 20.8075,-16.4384 0.9905,-5.1043 0.4804,-9.3653 -2.1362,-12.3595 -0.8278,-0.9293 -1.8188,-1.6975 -2.9234,-2.266"
       fill="#009ADE"
       id="path1"
       style="fill:#4b6eaf;fill-opacity:1" />
    <path
       d="m 60.910558,26.827612 c 0.8057,-5.1637 0,-8.6743 -2.783,-11.8543 -3.0564,-3.5031 -8.5817,-5.0039008 -15.6481,-5.0039008 h -20.5155 c -0.6993,-7e-4 -1.3759,0.2496998 -1.9078,0.7061008 -0.5319,0.4563 -0.8842,1.0886 -0.9934,1.7829 l -8.5411,54.4528 c -0.0401,0.2526 -0.0252,0.5109 0.0436,0.7571 0.0689,0.2462 0.1901,0.4745 0.3552,0.6691 0.1651,0.1946 0.3703,0.3508 0.6013,0.458 0.2311,0.1072 0.4825,0.1627 0.7369,0.1627 h 12.6656 l 3.2006,-20.2796 -0.0998,0.639 c 0.106,-0.6941 0.4557,-1.327 0.9859,-1.7843 0.5302,-0.4572 1.2057,-0.7085 1.9043,-0.7084 h 6.0205 c 11.8266,0 21.0662,-4.8294 23.7863,-18.7899 0.0776,-0.4124 0.1479,-0.8136 0.207,-1.2073"
       fill="#002169"
       id="path2" />
    <path
       d="m 31.525058,26.894512 c 0.0665,-0.4123 0.2309,-0.8025 0.4792,-1.1374 0.2483,-0.335 0.5733,-0.6049 0.9474,-0.7869 0.3458,-0.1672 0.7249,-0.2536 1.1087,-0.2526 h 16.0842 c 1.7749,-0.0179 3.5483,0.1063 5.3036,0.3715 0.4656,0.0743 0.9165,0.1634 1.3563,0.26 0.4398,0.0966 0.8649,0.2081 1.2751,0.3269 l 0.6098,0.1932 c 0.7644,0.2509 1.5062,0.5666 2.2175,0.9436 0.8057,-5.1637 0,-8.6743 -2.783,-11.8542 -3.0564,-3.5032 -8.5817,-5.0040008 -15.6481,-5.0040008 h -20.5118 c -0.6993,-6e-4 -1.3759,0.2497998 -1.9078,0.7061008 -0.5319,0.4563 -0.8842,1.0886 -0.9934,1.7829 l -8.5411,54.4677 c -0.0401,0.2526 -0.0252,0.5109 0.0436,0.7571 0.0689,0.2462 0.1901,0.4745 0.3552,0.6691 0.1651,0.1946 0.3703,0.3508 0.6013,0.458 0.2311,0.1072 0.4825,0.1627 0.7369,0.1627 h 12.6656 l 3.2006,-20.2796 z"
       fill="#002f87"
       id="path3" />
  </g>
  <g
     id="PayPal"
     transform="translate(0.2503136,-0.45545099)">
    <path
       d="m 198.89436,30.657612 h -13.351 c -0.445,-0.0057 -0.877,0.1487 -1.218,0.4352 -0.341,0.2864 -0.568,0.6857 -0.639,1.1253 l -5.388,34.1826 c -0.025,0.1586 -0.015,0.3208 0.028,0.4754 0.044,0.1547 0.12,0.298 0.224,0.4203 0.105,0.1224 0.234,0.2207 0.379,0.2885 0.146,0.0677 0.305,0.1031 0.465,0.1038 h 6.868 c 0.309,-6e-4 0.608,-0.1112 0.842,-0.312 0.235,-0.2009 0.391,-0.4788 0.44,-0.7841 l 1.523,-9.6912 c 0.07,-0.4407 0.296,-0.8416 0.637,-1.1293 0.341,-0.2876 0.775,-0.4429 1.221,-0.4374 h 4.217 c 8.781,0 13.846,-4.2481 15.171,-12.6698 0.62,-3.7155 0,-6.5764 -1.696,-8.6014 -1.926,-2.2293 -5.283,-3.4059 -9.723,-3.4059 z m 1.536,12.4841 c -0.731,4.7868 -4.384,4.7868 -7.92,4.7868 h -2.006 l 1.405,-8.9358 c 0.043,-0.262 0.177,-0.5004 0.379,-0.6728 0.202,-0.1723 0.458,-0.2674 0.724,-0.2684 h 0.928 c 2.403,0 4.676,0 5.846,1.3747 0.681,0.8174 0.892,2.0373 0.626,3.7155 z"
       fill="#ffffff"
       id="path4"
       style="fill:#4b6eaf;fill-opacity:1" />
    <path
       d="M 103.79636,30.657712 H 90.464358 c -0.436,0.0094 -0.856,0.1722 -1.184,0.4598 -0.328,0.2876 -0.545,0.6817 -0.612,1.1131 l -5.393,34.1826 c -0.026,0.1591 -0.016,0.3219 0.028,0.4769 0.044,0.1551 0.121,0.2987 0.226,0.4212 0.105,0.1224 0.235,0.2207 0.381,0.288 0.146,0.0673 0.306,0.1021 0.467,0.1019 h 6.359 c 0.447,0.0055 0.88,-0.1498 1.221,-0.4375 0.341,-0.2877 0.567,-0.6885 0.637,-1.1292 l 1.455,-9.2206 c 0.07,-0.4355 0.291,-0.8322 0.626,-1.1192 0.335,-0.287 0.76,-0.4456 1.201,-0.4475 h 4.217002 c 8.781,0 13.853,-4.2481 15.178,-12.6699 0.619,-3.7155 0,-6.5764 -1.703,-8.6013 -1.95,-2.2417 -5.313,-3.4183 -9.772,-3.4183 z m 1.536,12.4841 c -0.724,4.7868 -4.378,4.7868 -7.914002,4.7868 h -2.012 l 1.412,-8.9358 c 0.041,-0.2615 0.174,-0.4998 0.374,-0.6722 0.201,-0.1725 0.457,-0.2678 0.722,-0.269 h 0.922 c 2.403002,0 4.682002,0 5.852002,1.3747 0.7,0.8174 0.91,2.0373 0.644,3.7155 z"
       fill="#ffffff"
       id="path5"
       style="fill:#4b6eaf;fill-opacity:1" />
    <path
       d="m 143.63936,42.986812 h -6.385 c -0.265,-1e-4 -0.521,0.0948 -0.722,0.2675 -0.201,0.1727 -0.334,0.4117 -0.374,0.6737 l -0.278,1.7835 -0.446,-0.6193 c -1.387,-2.0063 -4.465,-2.6751 -7.543,-2.6751 -7.053,0 -13.078,5.3441 -14.242,12.8432 -0.62,3.7155 0.26,7.3071 2.378,9.8027 1.944,2.2912 4.724,3.2449 8.05,3.2449 1.642,0.0169 3.271,-0.2974 4.79,-0.9241 1.518,-0.6266 2.894,-1.5529 4.047,-2.7233 l -0.285,1.771 c -0.025,0.1587 -0.016,0.3209 0.028,0.4755 0.043,0.1546 0.12,0.298 0.224,0.4203 0.104,0.1223 0.233,0.2207 0.379,0.2884 0.146,0.0677 0.304,0.1031 0.465,0.1039 h 5.722 c 0.446,0.0055 0.879,-0.1498 1.22,-0.4375 0.341,-0.2877 0.567,-0.6885 0.637,-1.1292 l 3.45,-21.8471 c 0.031,-0.1627 0.026,-0.3303 -0.016,-0.4906 -0.042,-0.1603 -0.119,-0.3092 -0.226,-0.4358 -0.107,-0.1265 -0.241,-0.2274 -0.392,-0.2954 -0.151,-0.0679 -0.315,-0.1012 -0.481,-0.0972 z m -8.892,12.4283 c -0.252,1.7199 -1.124,3.2885 -2.451,4.4107 -1.328,1.1223 -3.02,1.7207 -4.758,1.6827 -0.796,0.0805 -1.6,-0.0332 -2.343,-0.3313 -0.743,-0.2981 -1.402,-0.7717 -1.922,-1.3804 -0.52,-0.6087 -0.884,-1.3342 -1.063,-2.1146 -0.178,-0.7803 -0.164,-1.5922 0.04,-2.3662 0.244,-1.7186 1.104,-3.29 2.422,-4.4204 1.317,-1.1304 3.001,-1.7427 4.737,-1.7225 0.793,-0.0421 1.586,0.0921 2.322,0.393 0.735,0.3008 1.395,0.7609 1.932,1.3471 0.497,0.6264 0.851,1.3538 1.039,2.1313 0.187,0.7775 0.202,1.5865 0.045,2.3706 z"
       fill="#ffffff"
       id="path6"
       style="fill:#4b6eaf;fill-opacity:1" />
    <path
       d="m 238.71836,42.986812 h -6.384 c -0.265,-1e-4 -0.521,0.0948 -0.723,0.2675 -0.201,0.1727 -0.333,0.4117 -0.373,0.6737 l -0.285,1.7835 -0.446,-0.6193 c -1.381,-2.0063 -4.458,-2.6751 -7.536,-2.6751 -7.053,0 -13.079,5.3441 -14.243,12.8432 -0.619,3.7155 0.254,7.3071 2.378,9.8027 1.944,2.2912 4.725,3.2449 8.05,3.2449 1.646,0.0137 3.277,-0.305 4.797,-0.9371 1.519,-0.6321 2.896,-1.5645 4.046,-2.7413 l -0.285,1.7711 c -0.025,0.1586 -0.015,0.3208 0.028,0.4754 0.044,0.1546 0.12,0.298 0.224,0.4203 0.105,0.1224 0.234,0.2207 0.38,0.2885 0.145,0.0677 0.304,0.1031 0.464,0.1038 h 5.747 c 0.446,0.0055 0.879,-0.1498 1.221,-0.4374 0.341,-0.2877 0.567,-0.6886 0.637,-1.1293 l 3.449,-21.8471 c 0.026,-0.1628 0.015,-0.3294 -0.031,-0.4876 -0.047,-0.1583 -0.128,-0.3042 -0.237,-0.4275 -0.11,-0.1232 -0.245,-0.2205 -0.397,-0.285 -0.152,-0.0645 -0.316,-0.0945 -0.481,-0.0879 z m -8.898,12.4283 c -0.249,1.72 -1.119,3.2893 -2.446,4.4118 -1.327,1.1226 -3.019,1.7208 -4.756,1.6816 -0.797,0.0805 -1.601,-0.0332 -2.343,-0.3313 -0.743,-0.2981 -1.403,-0.7717 -1.923,-1.3804 -0.519,-0.6087 -0.884,-1.3342 -1.062,-2.1146 -0.178,-0.7803 -0.165,-1.5922 0.039,-2.3662 0.244,-1.7176 1.104,-3.288 2.42,-4.4183 1.316,-1.1303 2.998,-1.7433 4.733,-1.7246 0.794,-0.0434 1.587,0.0902 2.323,0.3911 0.736,0.301 1.395,0.7617 1.931,1.349 0.497,0.6264 0.852,1.3538 1.039,2.1313 0.187,0.7775 0.202,1.5865 0.045,2.3706 z"
       fill="#ffffff"
       id="path7"
       style="fill:#4b6eaf;fill-opacity:1" />
    <path
       d="m 177.63636,42.986812 h -6.416 c -0.301,9e-4 -0.598,0.0752 -0.865,0.2166 -0.266,0.1413 -0.494,0.3454 -0.664,0.5947 l -8.856,13.0351 -3.746,-12.5212 c -0.114,-0.3825 -0.349,-0.718 -0.669,-0.9567 -0.32,-0.2387 -0.709,-0.3679 -1.108,-0.3685 h -6.304 c -0.177,4e-4 -0.352,0.043 -0.509,0.1242 -0.157,0.0811 -0.293,0.1986 -0.396,0.3426 -0.103,0.1441 -0.17,0.3105 -0.196,0.4856 -0.025,0.1751 -0.009,0.3539 0.048,0.5215 l 7.066,20.7324 -6.645,9.3754 c -0.118,0.1659 -0.189,0.3612 -0.203,0.5645 -0.015,0.2032 0.027,0.4066 0.12,0.5878 0.094,0.1811 0.235,0.3329 0.409,0.4388 0.175,0.1059 0.374,0.1618 0.578,0.1614 h 6.409 c 0.299,2e-4 0.594,-0.0718 0.859,-0.2098 0.265,-0.138 0.493,-0.3379 0.665,-0.5829 l 21.339,-30.7952 c 0.115,-0.1672 0.182,-0.3627 0.194,-0.5652 0.012,-0.2026 -0.031,-0.4047 -0.125,-0.5844 -0.095,-0.1797 -0.236,-0.3303 -0.41,-0.4354 -0.173,-0.1052 -0.372,-0.1609 -0.575,-0.1613 z"
       fill="#ffffff"
       id="path8"
       style="fill:#4b6eaf;fill-opacity:1" />
    <path
       d="m 246.24236,31.611212 -5.474,34.8018 c -0.025,0.1587 -0.015,0.3209 0.028,0.4755 0.044,0.1546 0.12,0.298 0.224,0.4203 0.104,0.1223 0.234,0.2207 0.379,0.2884 0.146,0.0677 0.305,0.1031 0.465,0.1039 h 5.505 c 0.446,0.0055 0.88,-0.1498 1.221,-0.4375 0.341,-0.2877 0.567,-0.6885 0.637,-1.1293 l 5.4,-34.1825 c 0.025,-0.1589 0.015,-0.3213 -0.029,-0.4761 -0.044,-0.1547 -0.121,-0.298 -0.226,-0.42 -0.104,-0.122 -0.235,-0.2197 -0.381,-0.2863 -0.146,-0.0666 -0.306,-0.1005 -0.466,-0.0994 h -6.156 c -0.27,-0.0077 -0.534,0.0838 -0.741,0.2572 -0.208,0.1734 -0.345,0.4167 -0.386,0.684 z"
       fill="#ffffff"
       id="path9"
       style="fill:#4b6eaf;fill-opacity:1" />
  </g>
  <g
     id="Donate_with"
     transform="translate(0.2503136,-0.45545099)">
    <path
       d="m 123.64736,22.172012 h -4.3 V 9.454411 h 4.3 c 1.984,0 3.61,0.5866 4.88,1.759801 1.27,1.1611 1.905,2.6911 1.905,4.59 0,1.8988 -0.635,3.4349 -1.905,4.608 -1.27,1.1732 -2.896,1.7598 -4.88,1.7598 z m -2.358,-11.0666 v 9.4157 h 2.322 c 1.439,0 2.606,-0.4294 3.501,-1.2881 0.895,-0.8708 1.343,-2.0138 1.343,-3.4288 0,-1.4151 -0.448,-2.552 -1.343,-3.4107 -0.895,-0.8588 -2.062,-1.2881 -3.501,-1.2881 z"
       fill="#ffffff"
       id="path10"
       style="fill:#bbbbbb;fill-opacity:1" />
    <path
       d="m 136.29236,22.371612 c -1.27,0 -2.34,-0.4596 -3.211,-1.3788 -0.871,-0.9192 -1.306,-2.0743 -1.306,-3.4651 0,-1.403 0.435,-2.5641 1.306,-3.4833 0.871,-0.9192 1.941,-1.3788 3.211,-1.3788 1.282,0 2.359,0.4596 3.229,1.3788 0.871,0.9192 1.307,2.0803 1.307,3.4833 0,1.3908 -0.436,2.5459 -1.307,3.4651 -0.87,0.9192 -1.947,1.3788 -3.229,1.3788 z m 0,-1.6147 c 0.798,0 1.445,-0.2963 1.941,-0.8889 0.496,-0.6048 0.744,-1.3849 0.744,-2.3403 0,-0.9676 -0.248,-1.7477 -0.744,-2.3404 -0.496,-0.6047 -1.143,-0.9071 -1.941,-0.9071 -0.798,0 -1.445,0.3024 -1.941,0.9071 -0.484,0.5927 -0.726,1.3728 -0.726,2.3404 0,0.9554 0.242,1.7355 0.726,2.3403 0.496,0.5926 1.143,0.8889 1.941,0.8889 z"
       fill="#ffffff"
       id="path11"
       style="fill:#bbbbbb;fill-opacity:1" />
    <path
       d="m 142.91436,22.172012 v -9.1254 l 1.869,-0.3084 v 1.0341 c 0.447,-0.3387 0.943,-0.6048 1.487,-0.7983 0.557,-0.2056 1.113,-0.3084 1.669,-0.3084 0.992,0 1.76,0.2782 2.304,0.8345 0.557,0.5564 0.835,1.3304 0.835,2.3222 v 6.3497 h -1.887 v -5.878 c 0,-0.6894 -0.157,-1.1913 -0.472,-1.5058 -0.302,-0.3266 -0.774,-0.4898 -1.415,-0.4898 -0.447,0 -0.871,0.0604 -1.27,0.1814 -0.399,0.1209 -0.816,0.3205 -1.251,0.5987 v 7.0935 z"
       fill="#ffffff"
       id="path12"
       style="fill:#bbbbbb;fill-opacity:1" />
    <path
       d="m 154.94236,19.759112 c 0,0.375 0.127,0.6713 0.381,0.889 0.266,0.2177 0.617,0.3265 1.052,0.3265 0.387,0 0.762,-0.0604 1.125,-0.1814 0.363,-0.133 0.756,-0.3447 1.179,-0.6349 v -2.3404 c -1.258,0.0484 -2.195,0.2359 -2.812,0.5624 -0.617,0.3145 -0.925,0.7741 -0.925,1.3788 z m 5.787,2.4129 h -1.868 l -0.182,-0.9797 c -0.435,0.3871 -0.895,0.6834 -1.378,0.889 -0.472,0.1935 -0.962,0.2903 -1.47,0.2903 -0.786,0 -1.433,-0.2298 -1.941,-0.6894 -0.496,-0.4596 -0.744,-1.0583 -0.744,-1.7961 0,-1.0038 0.472,-1.7839 1.415,-2.3403 0.943,-0.5685 2.316,-0.8769 4.118,-0.9252 v -0.5443 c 0,-0.5926 -0.163,-1.0402 -0.49,-1.3425 -0.326,-0.3024 -0.81,-0.4536 -1.451,-0.4536 -0.496,0 -1.004,0.0786 -1.524,0.2359 -0.508,0.1451 -1.022,0.3689 -1.542,0.6712 v -1.5965 c 0.423,-0.2781 0.931,-0.5019 1.524,-0.6712 0.605,-0.1694 1.179,-0.254 1.724,-0.254 1.161,0 2.056,0.2903 2.685,0.8708 0.629,0.5805 0.943,1.3969 0.943,2.4492 v 4.3359 c 0,0.3871 0.012,0.7076 0.036,0.9616 0.024,0.2539 0.073,0.5503 0.145,0.8889 z"
       fill="#ffffff"
       id="path13"
       style="fill:#bbbbbb;fill-opacity:1" />
    <path
       d="m 162.18136,14.316512 v -1.4514 h 1.36 v -2.0137 l 1.887,-0.2903 v 2.304 h 3.229 l -0.254,1.4514 h -2.975 v 4.9709 c 0,0.4596 0.127,0.8164 0.381,1.0704 0.266,0.254 0.629,0.381 1.089,0.381 0.435,0 0.81,-0.0302 1.124,-0.0907 0.327,-0.0726 0.672,-0.1814 1.035,-0.3266 v 1.5421 c -0.339,0.1693 -0.714,0.2903 -1.125,0.3628 -0.399,0.0847 -0.829,0.127 -1.288,0.127 -0.956,0 -1.712,-0.2479 -2.268,-0.7438 -0.556,-0.4959 -0.835,-1.1974 -0.835,-2.1045 v -5.1886 z"
       fill="#ffffff"
       id="path14"
       style="fill:#bbbbbb;fill-opacity:1" />
    <path
       d="m 174.59036,14.153212 c -0.665,0 -1.228,0.2177 -1.687,0.6531 -0.46,0.4355 -0.75,1.0281 -0.871,1.778 h 4.681 v -0.0907 c 0,-0.7136 -0.188,-1.2821 -0.563,-1.7054 -0.375,-0.4233 -0.895,-0.635 -1.56,-0.635 z m 3.556,6.0232 v 1.5784 c -0.448,0.2056 -0.913,0.3567 -1.397,0.4535 -0.472,0.1089 -0.974,0.1633 -1.506,0.1633 -1.476,0 -2.685,-0.4536 -3.628,-1.3607 -0.932,-0.9192 -1.397,-2.0924 -1.397,-3.5195 0,-1.3788 0.417,-2.5278 1.251,-3.447 0.835,-0.9192 1.887,-1.3788 3.157,-1.3788 1.234,0 2.189,0.3991 2.867,1.1974 0.689,0.7861 1.034,1.8625 1.034,3.2292 0,0.1815 0,0.3206 0,0.4173 0,0.0847 -0.006,0.1693 -0.018,0.254 h -6.532 c 0.073,0.9192 0.424,1.657 1.053,2.2133 0.641,0.5443 1.445,0.8164 2.413,0.8164 0.58,0 1.064,-0.0484 1.451,-0.1451 0.399,-0.0968 0.816,-0.254 1.252,-0.4717 z"
       fill="#ffffff"
       id="path15"
       style="fill:#bbbbbb;fill-opacity:1" />
    <path
       d="m 188.03336,19.759112 2.105,-6.894 h 1.288 l 2.159,6.9122 2.104,-6.9122 h 1.742 l -3.175,9.3613 h -1.433 l -2.123,-6.7669 -2.104,6.7669 h -1.434 l -3.175,-9.3613 h 1.905 z"
       fill="#ffffff"
       id="path16"
       style="fill:#bbbbbb;fill-opacity:1" />
    <path
       d="m 199.95336,10.597412 c -0.339,0 -0.623,-0.114901 -0.853,-0.344701 -0.23,-0.2298 -0.345,-0.508 -0.345,-0.8345 0,-0.3266 0.115,-0.6048 0.345,-0.8346 0.23,-0.2298 0.514,-0.3447 0.853,-0.3447 0.338,0 0.622,0.1149 0.852,0.3447 0.23,0.2298 0.345,0.508 0.345,0.8346 0,0.3265 -0.115,0.6047 -0.345,0.8345 -0.23,0.2298 -0.514,0.344701 -0.852,0.344701 z m 0.925,11.5746 h -1.869 v -9.1254 l 1.869,-0.3084 z"
       fill="#ffffff"
       id="path17"
       style="fill:#bbbbbb;fill-opacity:1" />
    <path
       d="m 202.65636,14.316512 v -1.4514 h 1.36 v -2.0137 l 1.887,-0.2903 v 2.304 h 3.229 l -0.254,1.4514 h -2.975 v 4.9709 c 0,0.4596 0.127,0.8164 0.381,1.0704 0.266,0.254 0.629,0.381 1.089,0.381 0.435,0 0.81,-0.0302 1.124,-0.0907 0.327,-0.0726 0.672,-0.1814 1.035,-0.3266 v 1.5421 c -0.339,0.1693 -0.714,0.2903 -1.125,0.3628 -0.399,0.0847 -0.829,0.127 -1.288,0.127 -0.956,0 -1.712,-0.2479 -2.268,-0.7438 -0.556,-0.4959 -0.835,-1.1974 -0.835,-2.1045 v -5.1886 z"
       fill="#ffffff"
       id="path18"
       style="fill:#bbbbbb;fill-opacity:1" />
    <path
       d="M 211.45536,22.172012 V 7.894211 l 1.868,-0.2721 v 6.150201 c 0.448,-0.3387 0.944,-0.6048 1.488,-0.7983 0.556,-0.2056 1.113,-0.3084 1.669,-0.3084 0.992,0 1.76,0.2782 2.304,0.8345 0.556,0.5564 0.834,1.3304 0.834,2.3222 v 6.3497 h -1.886 v -5.878 c 0,-0.6894 -0.158,-1.1913 -0.472,-1.5058 -0.302,-0.3266 -0.774,-0.4898 -1.415,-0.4898 -0.448,0 -0.871,0.0604 -1.27,0.1814 -0.399,0.1209 -0.816,0.3205 -1.252,0.5987 v 7.0935 z"
       fill="#ffffff"
       id="path19"
       style="fill:#bbbbbb;fill-opacity:1" />
  </g>
  <metadata
     id="metadata1">
    <rdf:RDF>
      <cc:Work
         rdf:about="" />
    </rdf:RDF>
  </metadata>
</svg>
