<?xml version="1.0" encoding="UTF-8" standalone="no"?>
<svg
   height="24"
   viewBox="0 -960 960 960"
   width="24"
   fill="#e8eaed"
   version="1.1"
   id="svg1"
   xmlns="http://www.w3.org/2000/svg"
   xmlns:svg="http://www.w3.org/2000/svg">
  <defs
     id="defs1" />
  <path
     d="m 360,-120 q -100,0 -170,-70 -70,-70 -70,-170 v -240 q 0,-100 70,-170 70,-70 170,-70 h 240 q 100,0 170,70 70,70 70,170 v 240 q 0,100 -70,170 -70,70 -170,70 z m 80,-200 240,-240 -56,-56 -184,184 -88,-88 -56,56 z m -80,120 h 240 q 66,0 113,-47 47,-47 47,-113 v -240 q 0,-66 -47,-113 -47,-47 -113,-47 H 360 q -66,0 -113,47 -47,47 -47,113 v 240 q 0,66 47,113 47,47 113,47 z m 120,-280 z"
     id="path1"
     style="fill:#00c853;fill-opacity:1" />
</svg>
