<?xml version="1.0" encoding="UTF-8" standalone="no"?>
<svg
   height="24"
   viewBox="0 -960 960 960"
   width="24"
   fill="#e8eaed"
   version="1.1"
   id="svg1"
   xmlns="http://www.w3.org/2000/svg"
   xmlns:svg="http://www.w3.org/2000/svg">
  <defs
     id="defs1" />
  <path
     d="M 480,-80 Q 397,-80 324,-111.5 251,-143 197,-197 143,-251 111.5,-324 80,-397 80,-480 80,-612 157,-717.5 234,-823 360,-862 v 86 Q 269,-739 214.5,-658.5 160,-578 160,-480 q 0,134 93,227 93,93 227,93 134,0 227,-93 93,-93 93,-227 0,-98 -54.5,-178.5 Q 691,-739 600,-776 v -86 q 126,39 203,144.5 77,105.5 77,237.5 0,83 -31.5,156 -31.5,73 -85.5,127 -54,54 -127,85.5 Q 563,-80 480,-80 Z m 0,-240 -200,-200 56,-56 104,103 v -407 h 80 v 407 l 104,-103 56,56 z"
     id="path1"
     style="fill:#212121;fill-opacity:1" />
</svg>
