<?xml version="1.0" encoding="UTF-8" standalone="no"?>
<svg
   height="48"
   viewBox="0 -960 960 960"
   width="48"
   version="1.1"
   id="svg1"
   xmlns="http://www.w3.org/2000/svg"
   xmlns:svg="http://www.w3.org/2000/svg">
  <defs
     id="defs1" />
  <path
     style="fill:#212121;stroke-width:0.524304"
     d="m 474.45078,-839.80953 c -61.09478,0.35435 -122.49786,15.72021 -175.21796,46.95573 -46.86916,27.6811 -87.12342,66.11938 -118.41155,110.55656 -34.347,49.52566 -54.80445,108.33774 -59.41351,168.38538 -1.69948,22.72252 -1.05484,45.56354 -0.0602,68.30482 4.86885,60.15378 25.44152,119.0797 60.08168,168.5835 29.66644,42.54026 67.98974,79.1558 112.12958,106.4253 41.55222,25.3289 88.48698,41.68204 136.79724,47.56986 25.08304,3.31858 50.48824,3.45108 75.71982,2.16208 55.60194,-3.56322 110.76464,-19.29612 158.44688,-48.44252 42.8504,-26.1087 80.03166,-61.22964 109.73444,-101.59128 33.33036,-45.39878 54.6841,-99.30654 62.08286,-155.10482 4.0223,-27.34522 3.8132,-55.09536 2.23752,-82.6239 -0.4246,-1.0374 0.2318,-4.41204 -1.0434,-4.37056 -12.43988,10.88082 -25.05352,21.69148 -39.18446,30.36516 -30.67626,19.22582 -65.77766,31.13514 -101.6146,35.81794 -25.63436,2.74658 -51.74118,3.29558 -77.25556,-0.8648 -46.80994,-8.119 -89.80798,-33.5973 -121.1981,-69.0146 -31.88878,-35.0759 -51.5078,-81.29496 -53.35006,-128.75944 -3.911,-61.77716 15.44434,-125.4871 55.97082,-172.668 5.44122,-6.69028 12.12782,-12.45376 17.35356,-19.2134 -2.5594,-1.98462 -6.52314,-1.03756 -9.6095,-1.6405 -11.38528,-0.64 -22.79374,-0.82934 -34.19546,-0.83254 z"
     id="path12" />
</svg>
