<?xml version="1.0" encoding="UTF-8" standalone="no"?>
<svg
   height="48"
   viewBox="0 -960 960 960"
   width="48"
   version="1.1"
   id="svg1"
   xmlns="http://www.w3.org/2000/svg"
   xmlns:svg="http://www.w3.org/2000/svg">
  <defs
     id="defs1" />
  <path
     style="fill:#4b6eaf;fill-opacity:1;stroke-width:0.524304"
     d="m 471.02334,-839.13981 c -16.5613,-0.24374 -33.14384,0.58048 -49.48422,3.41411 -51.18488,8.03585 -100.97818,26.75785 -143.43084,56.69341 -47.0289,32.46257 -86.63787,75.65835 -114.91979,125.30857 -26.60503,47.86098 -40.95996,102.31004 -42.68557,156.97108 -0.55138,26.02782 -0.1708,52.1944 4.23808,77.91994 7.21897,46.2528 23.87562,91.04474 49.27947,130.40554 32.19809,50.18714 76.42619,92.71756 128.02875,122.62636 47.06844,26.8532 100.56672,42.50382 154.70512,45.00344 31.43576,0.2928 63.159,0.6644 94.13608,-5.52234 51.47614,-9.68986 100.7461,-31.11516 142.49708,-62.81362 32.5581,-24.80648 61.75228,-54.31356 85.10172,-87.99 34.64158,-50.00302 55.91772,-109.35406 59.96214,-170.09888 0.4054,-21.19598 0.8474,-42.43292 0.022,-63.61546 -0.657,-2.94892 -3.13088,0.3348 -4.3459,1.0752 -18.18276,15.65994 -37.61832,30.20262 -59.58192,40.15056 -31.05084,14.55702 -64.99736,23.42286 -99.33028,24.51806 -20.9971,0.4802 -42.22686,0.5468 -62.81604,-4.1813 -37.50084,-7.56668 -72.20464,-26.63976 -99.8584,-52.9176 -34.15662,-31.54222 -58.04968,-74.34024 -65.29452,-120.39544 -2.83696,-18.84524 -2.5414,-38.02228 -1.8416,-57.01704 2.26312,-40.17334 15.52666,-79.54112 36.91964,-113.53808 9.69878,-15.57756 22.0088,-29.25662 34.7076,-42.41302 1.8604,-1.19098 1.1982,-2.37807 -0.7862,-2.39251 -11.48196,-1.85734 -23.21882,-0.87448 -34.80884,-1.19706 -3.47146,-0.005 -6.94292,0.004 -10.4144,0.006 z"
     id="path12" />
</svg>
