<?xml version="1.0" encoding="UTF-8" standalone="no"?>
<svg
   height="48"
   viewBox="0 -960 960 960"
   width="48"
   version="1.1"
   id="svg1"
   xmlns="http://www.w3.org/2000/svg"
   xmlns:svg="http://www.w3.org/2000/svg">
  <defs
     id="defs1" />
  <path
     style="fill:#212121;stroke-width:0.524304"
     d="m 228.0721,-731.9279 c -6.9897,6.99138 -13.9794,13.98278 -20.96908,20.97418 76.98422,76.98492 153.96846,153.96984 230.95268,230.95474 -76.98476,76.9837 -153.96898,153.96794 -230.95268,230.9527 13.97938,13.98278 27.95876,27.96556 41.93814,41.94838 76.98628,-76.9856 153.97256,-153.97118 230.95884,-230.95678 76.75832,76.6214 153.20762,153.55448 230.30754,229.83242 1.8,1.4288 3.54046,-2.91146 5.24606,-3.68146 12.58494,-12.24212 24.90708,-24.7503 37.34336,-37.14256 -76.98368,-76.98476 -153.9679,-153.969 -230.95266,-230.9527 76.98422,-76.9849 153.96846,-153.96982 230.95266,-230.95474 -13.99172,-13.76872 -27.61352,-28.14778 -41.98932,-41.38414 -70.05388,69.18316 -139.42796,139.05388 -209.11848,208.60358 -7.26304,7.26298 -14.5261,14.52596 -21.78916,21.78896 -76.98628,-76.9856 -153.97256,-153.97118 -230.95884,-230.95678 -6.98968,6.9914 -13.97938,13.9828 -20.96906,20.9742 z"
     id="path2" />
</svg>
