<?xml version="1.0" encoding="UTF-8" standalone="no"?>
<svg
   height="48"
   viewBox="0 -960 960 960"
   width="48"
   version="1.1"
   id="svg1"
   xmlns="http://www.w3.org/2000/svg"
   xmlns:svg="http://www.w3.org/2000/svg">
  <defs
     id="defs1" />
  <path
     style="fill:#212121;stroke-width:0.524304"
     d="m 476.95556,-679.90614 c -47.14432,-0.086 -94.18314,17.65584 -129.014,49.5339 -30.81148,27.0053 -53.81278,63.29776 -62.81982,103.43638 -5.0717,20.10032 -5.05838,40.96964 -4.59676,61.55492 2.05548,40.06882 17.3498,79.22766 42.91918,110.1396 26.72854,32.9064 63.30292,58.41068 104.63422,68.88934 17.7837,4.6884 36.21014,6.8299 54.5953,6.08256 27.69042,0.3426 55.33954,-5.83126 80.59536,-17.08242 35.2928,-16.4561 65.32544,-43.58964 86.5306,-76.13974 17.12188,-26.84916 27.72002,-58.07234 29.47364,-89.91706 0.2254,-16.17228 0.8728,-32.49194 -1.4956,-48.54176 -5.46656,-36.9303 -22.03974,-72.04116 -47.1006,-99.7148 -26.17892,-29.57826 -60.48966,-52.67308 -99.1063,-62.14206 -17.81786,-4.51724 -36.25456,-6.35134 -54.6152,-6.09886 z"
     id="path17" />
  <path
     style="fill:#212121;stroke-width:0.524304"
     d="m 829.60712,-509.71122 c -15.7858,0.196 -31.61172,-0.146 -47.36654,0.8838 -13.22212,3.17598 -23.19644,16.49886 -21.78932,30.1454 0.003,13.43598 10.8767,26.51252 24.43336,27.73792 35.34746,0.9094 70.72426,0.7746 106.07648,0.156 15.15636,1.203 28.7491,-12.82672 28.65114,-27.7113 1.2904,-14.40312 -9.9709,-29.13498 -24.5257,-30.56758 -21.81438,-0.7766 -43.6542,-0.6136 -65.47942,-0.6438 z"
     id="path18" />
  <path
     style="fill:#212121;stroke-width:0.524304"
     d="m 697.86148,-290.54614 c -13.926,0.126 -26.3259,12.6378 -27.4348,26.30734 -0.5484,8.57272 1.6476,17.60642 7.9905,23.74316 18.4343,19.9109 37.79614,38.94876 56.95258,58.16186 11.47056,11.69402 33.08528,10.44368 43.01978,-2.68024 5.1152,-5.88378 7.19434,-13.75654 6.48484,-21.43874 0.5494,-7.18516 -2.65388,-14.10324 -8.05076,-18.77854 -20.08574,-20.52974 -40.4122,-40.8606 -61.56692,-60.29096 -4.88206,-3.8939 -11.25596,-5.27526 -17.39522,-5.02388 z"
     id="path19" />
  <path
     style="fill:#212121;stroke-width:0.524304"
     d="m 479.61496,-199.74638 c -13.21558,-0.062 -25.45872,9.62806 -28.74064,22.38224 -1.1346,6.44482 -0.2242,13.23064 -0.547,19.81082 0.106,29.75286 -0.5936,59.51894 0.2094,89.2633 -0.3324,15.34274 14.32218,28.96414 29.55744,27.80088 11.2062,0.5066 22.01578,-6.34824 26.73538,-16.44696 4.01354,-7.99874 2.449,-17.32036 2.9684,-25.9479 -0.076,-30.57264 0.19,-61.1567 -0.52,-91.7214 -1.1712,-12.60016 -12.21034,-23.3435 -24.7084,-24.84132 -1.6404,-0.2286 -3.2988,-0.3252 -4.9547,-0.2996 z"
     id="path20" />
  <path
     style="fill:#212121;stroke-width:0.524304"
     d="m 259.72386,-290.53182 c -7.8995,-0.194 -14.99252,4.04484 -20.1866,9.70864 -20.45442,19.53624 -40.81249,39.21586 -60.19162,59.82406 -9.53724,13.40244 -5.00861,34.70092 9.92286,42.21976 11.75356,6.86578 28.533,5.25904 37.41442,-5.55718 19.67976,-19.88002 39.67246,-39.48528 58.55022,-60.13394 7.87862,-9.96976 7.01854,-25.26646 -1.4518,-34.63622 -5.828,-7.26802 -14.53884,-12.18606 -24.05754,-11.42512 z"
     id="path21" />
  <path
     style="fill:#212121;stroke-width:0.524304"
     d="m 86.154766,-509.55762 c -9.080366,0.3736 -18.436406,-0.7048 -27.30168,1.6374 -11.089952,4.46694 -19.22081,15.92872 -18.481704,28.05434 -0.62282,15.12388 12.862148,30.0309 28.335726,29.05992 35.249172,0.6544 70.522832,0.772 105.768702,-0.096 14.02425,-0.8654 25.69313,-14.4784 25.1098,-28.4344 0.59779,-12.30602 -7.24278,-24.32542 -18.8268,-28.60528 -5.29593,-2.69576 -11.45914,-0.9266 -17.17603,-1.4552 -25.80932,-0.05 -51.61864,-0.168 -77.428014,-0.162 z"
     id="path22" />
  <path
     style="fill:#212121;stroke-width:0.524304"
     d="m 203.68992,-785.76324 c -15.45076,-0.007 -29.68199,14.10422 -28.56796,29.75012 -0.4784,6.99976 0.93618,14.5466 6.36604,19.451 19.73416,20.42974 39.93498,40.43408 60.76586,59.74572 9.85334,8.23906 25.54612,8.7982 35.92712,1.2358 7.49748,-5.71446 12.08444,-14.93344 11.43122,-24.42694 -0.082,-8.22768 -3.75294,-16.10652 -9.90424,-21.5447 -18.95264,-19.8694 -38.0418,-39.64184 -57.96232,-58.54504 -5.0975,-3.88174 -11.67554,-5.79496 -18.05572,-5.66596 z"
     id="path23" />
  <path
     style="fill:#212121;stroke-width:0.524304"
     d="m 479.3395,-919.52314 c -15.3736,-0.58726 -29.4702,13.38647 -28.86376,28.79743 -0.6528,31.06813 -0.11,62.15241 -0.048,93.22598 0.2792,7.67341 -0.852,16.01304 3.8309,22.70385 6.04966,11.12475 19.67656,16.59466 31.8549,13.87888 12.01542,-2.19908 21.98946,-12.70455 23.51292,-24.75203 -0.0754,-34.814 0.5724,-69.6363 -0.0839,-104.44509 0.32976,-8.24798 -3.02674,-16.4299 -9.29572,-21.84198 -5.47994,-5.53098 -13.21622,-8.00135 -20.90738,-7.56704 z"
     id="path24" />
  <path
     style="fill:#212121;stroke-width:0.524304"
     d="m 753.9927,-785.32291 c -8.2882,0.034 -16.17104,4.02487 -21.4092,10.39039 -19.42322,19.64694 -39.16692,39.01034 -57.80918,59.40548 -9.63346,12.15452 -5.97046,31.82576 7.08958,40.04706 10.05518,6.63122 24.38298,7.17734 34.33388,0.112 21.1987,-19.51644 41.61484,-39.88692 61.67908,-60.56478 12.46186,-12.00584 9.43794,-35.26794 -5.26954,-44.18878 -5.48806,-3.56309 -12.07996,-5.37028 -18.61462,-5.20137 z"
     id="path25" />
</svg>
