<?xml version="1.0" encoding="UTF-8" standalone="no"?>
<svg
   height="48"
   viewBox="0 -960 960 960"
   width="48"
   version="1.1"
   id="svg1"
   xmlns="http://www.w3.org/2000/svg"
   xmlns:svg="http://www.w3.org/2000/svg">
  <defs
     id="defs1" />
  <path
     d="M 480,-160 Q 347,-160 253.5,-253.5 160,-347 160,-480 160,-613 253.5,-706.5 347,-800 480,-800 q 85,0 149,34.5 64,34.5 111,94.5 v -129 h 60 v 254 H 546 v -60 h 168 q -38,-60 -97,-97 -59,-37 -137,-37 -109,0 -184.5,75.5 Q 220,-589 220,-480 q 0,109 75.5,184.5 75.5,75.5 184.5,75.5 83,0 152,-47.5 69,-47.5 96,-125.5 h 62 q -29,105 -115,169 -86,64 -195,64 z"
     id="path1"
     style="fill:#212121;fill-opacity:1" />
</svg>
