<?xml version="1.0" encoding="UTF-8" standalone="no"?>
<svg
   height="48"
   viewBox="0 -960 960 960"
   width="48"
   version="1.1"
   id="svg1"
   xmlns="http://www.w3.org/2000/svg"
   xmlns:svg="http://www.w3.org/2000/svg">
  <defs
     id="defs1" />
  <path
     style="display:inline;fill:#ff6001;fill-opacity:1;stroke-width:0.524304"
     d="m 403.18952,-563.62644 c -25.6035,25.60316 -51.207,51.20632 -76.8105,76.80948 15.205,15.20392 30.40948,30.40838 45.6134,45.61338 26.04076,-26.0387 52.08152,-52.07742 78.12228,-78.11612 0,113.16118 0,226.32236 0,339.48354 -69.90716,0 -139.81432,0 -209.72148,0 0,19.92354 0,39.84708 0,59.77062 159.73786,0 319.4757,0 479.21356,0 0,-19.92354 0,-39.84708 0,-59.77062 -69.90716,0 -139.81432,0 -209.72148,0 0,-113.16118 0,-226.32236 0,-339.48354 26.04076,26.0387 52.08152,52.07742 78.12228,78.11612 15.20392,-15.205 30.4084,-30.40946 45.6134,-45.61338 C 582.41398,-538.02328 531.207,-589.22958 480,-640.4359 c -25.6035,25.60316 -51.207,51.20632 -76.81048,76.80946 z"
     id="path2" />
  <path
     style="display:inline;fill:#212121;fill-opacity:1;stroke-width:0.524304"
     d="m 416.04418,-839.95699 c -93.87134,0.12323 -187.74526,-0.0883 -281.61457,0.54683 -20.25154,1.43049 -37.69544,15.48986 -47.52941,32.63129 -3.485576,7.03337 -6.875738,14.66877 -6.161628,22.68275 0.0042,124.27628 -0.350138,248.553 -0.09509,372.82902 0.35702,12.84352 -0.40876,25.81684 1.43258,38.56092 6.26332,19.81776 22.389388,36.69892 42.612198,42.31674 9.09261,2.95842 18.79555,1.3322 28.17902,1.8646 65.70116,0.3522 131.40362,0.232 197.10542,0.3106 0,-19.92352 0,-39.84706 0,-59.7706 -70.08194,0 -140.16386,0 -210.24577,0 0,-130.72638 0,-261.45276 0,-392.17914 226.84871,0 453.69743,0 680.54615,0 0,130.72638 0,261.45276 0,392.17914 -70.08194,0 -140.16384,0 -210.24578,0 0,19.93002 0,39.86004 0,59.79006 72.96562,-0.094 145.93118,-0.188 218.89678,-0.2816 14.58404,-3.2972 28.34324,-10.98342 37.57156,-22.927 8.05818,-9.93268 13.41524,-22.5287 12.69296,-35.49496 0.5486,-75.89234 0.118,-151.78894 0.184,-227.68296 -0.038,-58.6022 -0.078,-117.2044 -0.116,-175.80661 -2.92792,-12.94865 -9.97036,-24.74532 -19.89364,-33.54717 -10.93766,-10.56052 -26.16806,-16.54786 -41.40406,-15.57346 -133.97012,-0.56862 -267.94364,-0.4135 -401.91472,-0.44845 z"
     id="path3" />
</svg>
